<svg width="513" height="512" viewBox="0 0 513 512" fill="none" xmlns="http://www.w3.org/2000/svg">
<g clip-path="url(#clip0_825_839)">
<path d="M422.667 123.765V250.789L397.062 276.395L418.272 297.605L437.667 278.211L457.062 297.605L478.272 276.395L452.667 250.789V113.176L512.667 92L256.667 0L0.666992 92L256.667 182L422.667 123.765Z" fill="#4AAC61"/>
<path d="M392.667 166.167L256.667 213.816L120.667 166.167V236.272L256.667 303.772L392.667 236.272V166.167Z" fill="#4AAC61"/>
<path d="M105.667 452C113.943 452 120.667 445.276 120.667 437V422H90.667V437C90.667 445.276 97.391 452 105.667 452Z" fill="#4AAC61"/>
<path d="M60.667 512C83.108 512 102.441 499.532 112.733 481.286C110.415 481.656 108.086 482 105.667 482C80.853 482 60.667 461.814 60.667 437V392H120.667C120.667 358.863 93.804 332 60.667 332C27.53 332 0.666992 358.863 0.666992 392V452C0.666992 485.137 27.53 512 60.667 512Z" fill="#4AAC61"/>
<path d="M286.257 482.205L286.576 482.269C294.489 468.551 301.667 446.637 301.667 422C301.667 397.354 294.486 375.433 286.568 361.716L286.242 361.78L258.113 357.763C266.531 376.42 271.667 399.462 271.667 422C271.667 441.638 267.19 465.918 258.527 486.167L286.257 482.205Z" fill="#4AAC61"/>
<path d="M435.294 332.293C435.104 332.293 434.913 332.293 434.723 332.293L317.054 355.621C326.571 376.143 331.667 401.26 331.667 422C331.667 442.718 326.577 467.802 317.081 488.312L437.667 512C479.02 512 512.667 478.353 512.667 437V407C512.667 365.823 479.313 332.293 435.294 332.293Z" fill="#4AAC61"/>
<path d="M134.012 503.819L221.031 491.527C230.816 480.312 241.667 452.119 241.667 422C241.667 395.16 231.981 365.17 219.423 352.235L134.008 340.178C144.416 354.859 150.667 372.673 150.667 392V452C150.667 471.325 144.418 489.139 134.012 503.819Z" fill="#4AAC61"/>
</g>
<defs>
<clipPath id="clip0_825_839">
<rect width="512" height="512" fill="#4AAC61" transform="translate(0.666992)"/>
</clipPath>
</defs>
</svg>
