<svg width="683" height="683" viewBox="0 0 683 683" fill="none" xmlns="http://www.w3.org/2000/svg">
<g clip-path="url(#clip0_825_769)">
<path d="M528.567 357.792H608.562V549.333H528.567V357.792Z" fill="#4AAC61"/>
<path d="M377.078 357.792H457.078V549.333H377.078V357.792Z" fill="#4AAC61"/>
<path d="M225.589 357.792H305.589V549.333H225.589V357.792Z" fill="#4AAC61"/>
<path d="M74.1045 357.792H154.099V549.333H74.1045V357.792Z" fill="#4AAC61"/>
<path d="M635.234 297.791V277.792H47.4375V297.791C47.4375 308.838 56.3906 317.791 67.4375 317.791H615.234C626.276 317.791 635.234 308.838 635.234 297.791Z" fill="#4AAC61"/>
<path d="M662.657 589.333H20.0215C8.9746 589.333 0.0214844 598.286 0.0214844 609.333V662.666C0.0214844 673.713 8.9746 682.666 20.0215 682.666H662.657C673.703 682.666 682.657 673.713 682.657 662.666V609.333C682.657 598.286 673.703 589.333 662.657 589.333Z" fill="#4AAC61"/>
<path d="M20.0002 237.792H662.667C671.614 237.792 679.474 231.849 681.911 223.239C684.344 214.63 680.771 205.448 673.151 200.76L351.818 2.96875C345.391 -0.989583 337.281 -0.989583 330.849 2.96875L9.51579 200.76C1.896 205.453 -1.67691 214.63 0.760583 223.239C3.19808 231.849 11.0575 237.792 20.0002 237.792ZM327.74 117.635H354.932C365.979 117.635 374.932 126.588 374.932 137.635C374.932 148.682 365.979 157.635 354.932 157.635H327.74C316.693 157.635 307.74 148.682 307.74 137.635C307.74 126.588 316.693 117.635 327.74 117.635Z" fill="#4AAC61"/>
</g>
<defs>
<clipPath id="clip0_825_769">
<rect width="682.667" height="682.667" fill="#4AAC61"/>
</clipPath>
</defs>
</svg>
