<svg width="513" height="512" viewBox="0 0 513 512" fill="none" xmlns="http://www.w3.org/2000/svg">
<path d="M321.723 148L297.939 106.4L256.099 211.016C255.498 212.493 254.469 213.756 253.145 214.644C251.82 215.532 250.261 216.004 248.667 216H248.339C246.69 215.935 245.102 215.363 243.791 214.36C242.481 213.357 241.512 211.974 241.019 210.4L214.267 123.504L199.491 148.12C198.783 149.299 197.783 150.275 196.587 150.955C195.392 151.634 194.042 151.994 192.667 152H136.667V136H188.139L209.811 99.88C210.607 98.5552 211.769 97.4894 213.158 96.8112C214.547 96.1331 216.102 95.8717 217.636 96.0587C219.17 96.2458 220.617 96.8731 221.803 97.865C222.988 98.8569 223.86 100.171 224.315 101.648L249.651 184L289.235 85.032C289.79 83.6282 290.731 82.4102 291.95 81.5187C293.168 80.6272 294.613 80.0986 296.12 79.994C297.626 79.8894 299.13 80.2131 300.46 80.9277C301.79 81.6422 302.891 82.7184 303.635 84.032L333.307 136H405.307C418.035 83.064 389.947 54.856 389.947 54.856C382.798 45.2893 373.518 37.5199 362.843 32.1639C352.169 26.8079 340.393 24.0127 328.451 24C287.435 24 256.667 54.856 256.667 54.856C256.667 54.856 225.899 24 184.883 24C172.934 24.0078 161.153 26.8006 150.472 32.1567C139.792 37.5129 130.507 45.285 123.355 54.856C123.355 54.856 31.0667 147.432 256.667 312C345.755 247.016 385.251 193.264 400.451 152H328.667C327.26 152.003 325.877 151.634 324.658 150.932C323.439 150.23 322.426 149.218 321.723 148Z" fill="#4AAC61"/>
<path d="M472.667 120C467.721 120.021 462.902 121.569 458.87 124.433C454.837 127.297 451.788 131.337 450.139 136H405.339C404.021 141.424 402.389 146.766 400.451 152H450.139C451.613 156.137 454.196 159.79 457.605 162.559C461.014 165.328 465.119 167.106 469.471 167.7C473.823 168.294 478.254 167.68 482.28 165.926C486.307 164.171 489.774 161.344 492.302 157.753C494.83 154.161 496.323 149.944 496.616 145.562C496.91 141.18 495.993 136.801 493.967 132.905C491.94 129.008 488.882 125.743 485.125 123.468C481.369 121.192 477.059 119.992 472.667 120ZM472.667 152C471.085 152 469.538 151.531 468.223 150.652C466.907 149.773 465.882 148.523 465.276 147.062C464.671 145.6 464.512 143.991 464.821 142.439C465.13 140.887 465.891 139.462 467.01 138.343C468.129 137.224 469.555 136.462 471.106 136.154C472.658 135.845 474.267 136.003 475.729 136.609C477.19 137.215 478.44 138.24 479.319 139.555C480.198 140.871 480.667 142.418 480.667 144C480.667 146.122 479.824 148.157 478.324 149.657C476.824 151.157 474.789 152 472.667 152Z" fill="#4AAC61"/>
<path d="M80.667 136H16.667V152H80.667V136Z" fill="#4AAC61"/>
<path d="M486.011 313.376C481.986 307.208 475.822 302.746 468.705 300.848C461.588 298.95 454.021 299.751 447.459 303.096L403.715 325.496C406.7 332.605 407.024 340.551 404.627 347.88C402.231 355.208 397.275 361.428 390.667 365.4L301.635 418.2C280.756 430.64 255.888 434.559 232.195 429.144L151.747 409.888L155.467 394.328L235.755 413.528C255.447 418.007 276.107 414.751 293.467 404.432L382.491 351.632C386.127 349.46 388.76 345.943 389.82 341.843C390.881 337.743 390.282 333.39 388.155 329.728C383.502 321.673 375.932 315.716 367.009 313.087C358.086 310.459 348.495 311.362 340.219 315.608L275.651 348.744C271.134 351.066 266.122 352.26 261.043 352.227C255.965 352.194 250.969 350.933 246.483 348.552L202.483 325.184C187.897 317.469 171.542 313.715 155.052 314.298C138.561 314.88 122.512 319.779 108.507 328.504L133.595 448.096L146.955 445.216C153.97 443.708 161.194 443.421 168.307 444.368L268.235 455.328C287.032 457.834 306.096 453.378 321.835 442.8L481.619 335.6C485.122 333.216 487.548 329.552 488.374 325.396C489.2 321.24 488.36 316.926 486.035 313.384L486.011 313.376Z" fill="#4AAC61"/>
<path d="M24.667 315.896L60.779 488L122.851 474.64L86.731 302.536L24.667 315.896ZM56.083 349.976L52.795 334.328L68.451 331.04L71.739 346.68L56.083 349.976Z" fill="#4AAC61"/>
</svg>
