<svg width="513" height="512" viewBox="0 0 513 512" fill="none" xmlns="http://www.w3.org/2000/svg">
<g clip-path="url(#clip0_825_762)">
<path d="M283.333 85.3334H246V144.853C246 153.6 238.747 160.853 230 160.853C221.253 160.853 214 153.6 214 144.853V85.3334H166C157.253 85.3334 150 92.5867 150 101.333V128H166C186.48 128 203.333 144.853 203.333 165.333V256H294C295.92 256 297.627 256.213 299.333 256.64V101.333C299.333 92.5867 292.08 85.3334 283.333 85.3334Z" fill="#4AAC61"/>
<path d="M166.001 149.333H128.667V210.987C128.667 219.947 121.414 226.987 112.667 226.987C103.921 226.987 96.6673 219.947 96.6673 210.987V149.333H59.334C50.5873 149.333 43.334 156.587 43.334 165.333V256H182.001V165.333C182.001 156.587 174.747 149.333 166.001 149.333Z" fill="#4AAC61"/>
<path d="M294 277.333H16.667C7.92033 277.333 0.666992 284.587 0.666992 293.333V389.333C0.666992 398.08 7.92033 405.333 16.667 405.333H23.707C22.6403 400.213 22.0003 394.88 22.0003 389.333C22.0003 345.173 57.8403 309.333 102 309.333C146.16 309.333 182 345.173 182 389.333C182 394.88 181.36 400.213 180.294 405.333H294C302.747 405.333 310 398.08 310 389.333V293.333C310 284.587 302.747 277.333 294 277.333Z" fill="#4AAC61"/>
<path d="M411.334 149.333H347.334C338.587 149.333 331.334 156.587 331.334 165.333V389.333C331.334 345.173 367.174 309.333 411.334 309.333C455.494 309.333 491.334 345.173 491.334 389.333C491.334 394.88 490.694 400.213 489.627 405.333H496.667C505.414 405.333 512.667 398.08 512.667 389.333V250.667C512.667 194.773 467.227 149.333 411.334 149.333Z" fill="#4AAC61"/>
<path d="M411.334 448C378.971 448 352.667 421.696 352.667 389.333C352.667 356.971 378.971 330.667 411.334 330.667C443.696 330.667 470 356.971 470 389.333C470 421.696 443.696 448 411.334 448Z" fill="#4AAC61"/>
<path d="M102.001 448C69.638 448 43.334 421.696 43.334 389.333C43.334 356.971 69.638 330.667 102.001 330.667C134.363 330.667 160.667 356.971 160.667 389.333C160.667 421.696 134.363 448 102.001 448Z" fill="#4AAC61"/>
</g>
<defs>
<clipPath id="clip0_825_762">
<rect width="512" height="512" fill="#4AAC61" transform="translate(0.666992)"/>
</clipPath>
</defs>
</svg>
