<svg width="513" height="512" viewBox="0 0 513 512" fill="none" xmlns="http://www.w3.org/2000/svg">
<g clip-path="url(#clip0_825_791)">
<path d="M91 0H151.333V80H91V0Z" fill="#4AAC61"/>
<path d="M271.667 0H332V80H271.667V0Z" fill="#4AAC61"/>
<path d="M181.334 0H241.667V80H181.334V0Z" fill="#4AAC61"/>
<path d="M362 0H422.333V80H362V0Z" fill="#4AAC61"/>
<path d="M497.667 0H452.334V80H512.667V15C512.667 6.716 505.951 0 497.667 0Z" fill="#4AAC61"/>
<path d="M61 0H15.667C7.38299 0 0.666992 6.716 0.666992 15V80H61V0Z" fill="#4AAC61"/>
<path d="M91 432H151.333V512H91V432Z" fill="#4AAC61"/>
<path d="M271.667 432H332V512H271.667V432Z" fill="#4AAC61"/>
<path d="M181.334 432H241.667V512H181.334V432Z" fill="#4AAC61"/>
<path d="M362 432H422.333V512H362V432Z" fill="#4AAC61"/>
<path d="M497.667 512H452.334V432H512.667V497C512.667 505.284 505.951 512 497.667 512Z" fill="#4AAC61"/>
<path d="M61 512H15.667C7.38299 512 0.666992 505.284 0.666992 497V432H61V512Z" fill="#4AAC61"/>
<path d="M251.667 271L271.667 256L251.667 241V271Z" fill="#4AAC61"/>
<path d="M256.667 171C209.798 171 171.667 209.131 171.667 256C171.667 302.869 209.798 341 256.667 341C303.536 341 341.667 302.869 341.667 256C341.667 209.131 303.536 171 256.667 171ZM305.667 268L245.667 313C243.021 314.985 239.853 316 236.665 316C234.378 316 232.082 315.478 229.959 314.417C224.877 311.875 221.667 306.682 221.667 301V211C221.667 205.318 224.877 200.125 229.959 197.583C235.04 195.042 241.121 195.59 245.667 199L305.667 244C309.444 246.833 311.667 251.279 311.667 256C311.667 260.721 309.444 265.167 305.667 268Z" fill="#4AAC61"/>
<path d="M0.666992 110V402H512.667V110H0.666992ZM256.667 371C193.256 371 141.667 319.411 141.667 256C141.667 192.589 193.256 141 256.667 141C320.078 141 371.667 192.589 371.667 256C371.667 319.411 320.078 371 256.667 371Z" fill="#4AAC61"/>
</g>
<defs>
<clipPath id="clip0_825_791">
<rect width="512" height="512" fill="#4AAC61" transform="translate(0.666992)"/>
</clipPath>
</defs>
</svg>
