<svg width="513" height="512" viewBox="0 0 513 512" fill="none" xmlns="http://www.w3.org/2000/svg">
<g clip-path="url(#clip0_825_784)">
<path d="M66.667 302H15.667C7.38299 302 0.666992 308.716 0.666992 317V352H66.667V302Z" fill="#4AAC61"/>
<path d="M0.666992 382H66.667V432H0.666992V382Z" fill="#4AAC61"/>
<path d="M497.667 482H487.667V409.613L487.905 409.817C490.734 412.242 494.205 413.429 497.66 413.429C501.887 413.429 506.089 411.651 509.056 408.19C514.448 401.9 513.719 392.431 507.429 387.04L412.429 305.611C406.812 300.796 398.523 300.796 392.906 305.611L297.906 387.04C291.616 392.431 290.887 401.901 296.279 408.19C301.671 414.479 311.141 415.209 317.429 409.817L317.667 409.613V482H216.667V242H226.667C234.951 242 241.667 235.284 241.667 227V217H387.667V244.58C370.208 250.772 357.667 267.445 357.667 287C357.667 295.284 364.383 302 372.667 302C380.951 302 387.667 295.284 387.667 287C387.667 278.729 394.396 272 402.667 272C410.938 272 417.667 278.729 417.667 287C417.667 295.284 424.383 302 432.667 302C440.951 302 447.667 295.284 447.667 287C447.667 267.445 435.126 250.772 417.667 244.58V217H496.667C504.951 217 511.667 210.284 511.667 202V112C511.667 103.716 504.951 97 496.667 97H241.667V87C241.667 78.716 234.951 72 226.667 72H216.667V15C216.667 6.716 209.951 0 201.667 0H111.667C103.383 0 96.667 6.716 96.667 15V72H86.667C78.383 72 71.667 78.716 71.667 87V132H36.667C30.21 132 24.479 136.131 22.437 142.256L2.43699 202.256C0.912992 206.831 1.67999 211.859 4.49899 215.77C7.31799 219.682 11.845 222 16.667 222H71.667V227C71.667 235.284 78.383 242 86.667 242H96.667V482H66.667V462H0.666992V497C0.666992 505.284 7.38299 512 15.667 512H497.667C505.951 512 512.667 505.284 512.667 497C512.667 488.716 505.951 482 497.667 482ZM392.667 382H412.667C420.951 382 427.667 388.716 427.667 397C427.667 405.284 420.951 412 412.667 412H392.667C384.383 412 377.667 405.284 377.667 397C377.667 388.716 384.383 382 392.667 382ZM387.667 457C387.667 448.716 394.383 442 402.667 442C410.951 442 417.667 448.716 417.667 457V482H387.667V457ZM186.667 353.213V460.787L132.881 407L186.667 353.213ZM126.667 370.787V263.213L180.454 317L126.667 370.787ZM481.667 187H442.88L481.667 148.213V187ZM460.454 127L406.667 180.787L352.88 127H460.454ZM370.454 187H262.88L316.667 133.214L370.454 187ZM126.667 30H186.667V72H171.667V142H241.667V127H280.454L235.454 172H156.667C148.383 172 141.667 165.284 141.667 157V72H126.667V30ZM37.479 192L47.479 162H71.667V192H37.479ZM186.667 242V280.787L147.88 242H186.667ZM126.667 443.213L165.454 482H126.667V443.213Z" fill="#4AAC61"/>
</g>
<defs>
<clipPath id="clip0_825_784">
<rect width="512" height="512" fill="#4AAC61" transform="translate(0.666992)"/>
</clipPath>
</defs>
</svg>
