<svg width="509" height="508" viewBox="0 0 509 508" fill="none" xmlns="http://www.w3.org/2000/svg">
<g clip-path="url(#clip0_825_777)">
<path d="M496.887 150.18H339.559L298.315 26.996C296.115 20.584 290.131 16.552 283.331 16.552C281.619 16.552 279.887 16.968 278.231 17.536C274.263 18.896 271.011 21.796 269.159 25.592C267.299 29.38 267.003 33.164 268.347 37.14L306.207 150.18H205.111L242.943 37.192C244.315 33.192 244.035 29.176 242.159 25.38C240.303 21.592 237.075 18.892 233.075 17.536C231.431 16.964 229.719 16.748 227.987 16.748C221.211 16.748 215.187 20.544 212.999 26.984L171.759 150.18H14.431C7.89499 150.18 0.666992 156.592 0.666992 163.136V178.948C0.666992 184.216 5.07899 188.632 9.82699 190.184L27.543 369.968C28.919 389.388 46.371 406.036 65.835 406.036H141.075C141.027 402.328 140.423 402.664 140.423 401.396C140.423 372.944 152.695 346.068 167.523 326.016V234.32C167.523 227.764 172.107 222.448 178.643 222.448C185.203 222.448 189.783 227.764 189.783 234.32V305.048C204.611 295.08 223.147 288.54 241.683 286.62V234.32C241.683 227.764 246.267 222.448 252.807 222.448C259.367 222.448 263.923 227.764 263.923 234.32V286.66C286.167 288.636 301.031 295.22 315.859 305.252V234.32C315.859 227.764 322.283 222.448 328.827 222.448C335.363 222.448 341.787 227.764 341.787 234.32V326.368C356.615 346.376 369.583 373.116 369.583 401.396C369.583 402.664 369.983 402.328 369.939 406.036H445.451C464.935 406.036 481.911 389.388 483.287 370.068L500.475 190.6C505.239 189.052 508.663 184.216 508.663 178.948V163.136C508.667 156.588 503.435 150.18 496.887 150.18ZM115.623 356.904C115.623 363.452 111.039 368.776 104.483 368.776C97.943 368.776 93.363 363.452 93.363 356.904V234.32C93.363 227.764 97.947 222.448 104.483 222.448C111.043 222.448 115.623 227.764 115.623 234.32V356.904ZM415.971 356.904C415.971 363.452 411.387 368.776 404.831 368.776C398.283 368.776 393.731 363.452 393.731 356.904V234.32C393.731 227.764 398.287 222.448 404.831 222.448C411.391 222.448 415.971 227.764 415.971 234.32V356.904Z" fill="#4AAC61"/>
<path d="M254.939 309.66C204.723 309.66 164.027 350.352 164.027 400.552C164.027 450.76 204.723 491.444 254.939 491.444C305.135 491.444 345.827 450.76 345.827 400.552C345.827 350.352 305.135 309.66 254.939 309.66ZM306.131 413.448H263.923V451.84C263.923 458.34 259.311 463.64 252.807 463.64C246.315 463.64 241.683 458.34 241.683 451.84V413.448H203.571C197.059 413.448 191.783 406.976 191.783 400.476C191.783 393.968 197.059 387.5 203.571 387.5H241.683V349.264C241.683 342.756 246.315 337.472 252.807 337.472C259.311 337.472 263.923 342.756 263.923 349.264V387.5H306.131C312.643 387.5 317.919 393.968 317.919 400.476C317.919 406.976 312.643 413.448 306.131 413.448Z" fill="#4AAC61"/>
</g>
<defs>
<clipPath id="clip0_825_777">
<rect width="507.996" height="507.996" fill="#4AAC61" transform="translate(0.666992)"/>
</clipPath>
</defs>
</svg>
