<svg width="121" height="120" viewBox="0 0 121 120" fill="none" xmlns="http://www.w3.org/2000/svg">
<path d="M99.682 68.501C97.962 68.501 97.102 69.361 96.099 70.078C95.668 69.074 94.808 63.34 94.378 62.48C95.812 61.476 99.251 58.323 99.251 55.886C99.251 53.019 97.102 51.299 93.948 51.299C93.088 51.299 93.088 51.586 92.227 51.873C91.51 42.985 86.637 49.436 101.831 34.241C106.275 29.941 112.295 19.907 106.848 13.599C102.979 9.15497 96.098 11.306 91.94 13.455C85.347 16.896 75.886 28.65 75.026 28.65C72.876 28.65 70.438 27.503 68.432 27.36C68.718 26.07 69.866 23.489 67.428 21.483C64.99 19.477 62.698 20.05 60.547 22.057C59.544 23.06 58.397 23.92 57.68 25.067C56.82 24.637 51.086 23.776 50.083 23.347C51.516 21.197 52.663 18.903 50.226 16.61C47.502 13.886 44.922 15.176 42.629 17.47C41.626 18.473 39.905 19.907 39.189 21.054L23.564 17.614C19.694 16.754 19.407 18.187 15.68 21.771C14.39 23.062 13.817 24.208 14.677 26.215C15.394 28.079 20.411 30.515 22.418 31.519L38.76 40.55C39.476 40.98 54.671 49.008 55.244 49.724C54.957 50.584 51.374 54.168 50.514 55.171C49.941 55.745 49.941 56.031 49.368 56.605L43.204 63.199C42.058 64.345 36.467 70.51 35.893 71.369C33.313 71.369 31.306 71.513 28.726 71.656C27.436 71.656 26.863 71.943 25.143 71.943C23.566 71.943 22.85 72.086 21.559 72.229C20.413 72.229 19.266 72.229 18.119 72.373C14.679 72.803 16.542 71.656 13.102 74.953C11.954 76.098 11.667 76.098 11.667 77.818C11.667 78.964 12.384 79.681 13.101 80.111L21.415 83.265C22.849 83.838 32.023 87.135 32.31 87.566C32.74 87.996 37.614 101.614 38.617 104.05C39.62 106.63 39.62 108.207 42.487 108.207C43.921 108.207 45.784 105.913 46.644 105.054C47.647 104.05 47.217 103.763 47.504 102.043L48.364 84.124C49.654 83.265 49.941 82.835 51.088 81.831L69.867 64.63C71.013 66.206 75.457 74.808 76.603 76.957L90.221 101.613C91.081 103.046 91.368 104.479 92.945 105.196C94.666 106.055 96.242 105.77 97.532 104.623C102.836 99.319 102.98 100.753 100.829 91.579C99.969 87.995 99.252 84.555 98.536 80.971C99.826 80.111 103.41 76.528 103.982 75.094C105.416 72.084 103.409 68.501 99.682 68.501Z" fill="#4AAC61"/>
</svg>
