<svg width="209" height="57" viewBox="0 0 209 57" fill="none" xmlns="http://www.w3.org/2000/svg">
<path d="M61.397 34.8955C61.397 31.2627 60.4595 28.6201 58.5845 26.9678C56.7095 25.3154 53.9791 24.4893 50.3931 24.4893H46.315V45.1787H50.9029C54.3248 45.1787 56.9263 44.3174 58.7076 42.5947C60.5005 40.8604 61.397 38.2939 61.397 34.8955ZM64.649 34.8076C64.649 39.0381 63.4478 42.2666 61.0455 44.4932C58.6431 46.7197 55.2916 47.833 50.9908 47.833H43.274V21.835H50.481C52.649 21.835 54.5884 22.0928 56.2994 22.6084C58.0103 23.1123 59.4927 23.8857 60.7466 24.9287C62.0123 25.96 62.9791 27.3135 63.647 28.9893C64.315 30.6533 64.649 32.5928 64.649 34.8076ZM80.2408 32.1182C79.3853 31.0869 78.2076 30.5713 76.7076 30.5713C75.2076 30.5713 73.983 31.1045 73.0338 32.1709C72.0845 33.2256 71.5279 34.6729 71.3638 36.5127H81.5416C81.5416 34.6025 81.108 33.1377 80.2408 32.1182ZM77.2877 48.2373C74.4869 48.2373 72.2779 47.3467 70.6607 45.5654C69.0552 43.7842 68.2525 41.3467 68.2525 38.2529C68.2525 35.2646 69.0318 32.8447 70.5904 30.9932C72.149 29.1299 74.1998 28.1807 76.7427 28.1455C79.1334 28.1455 81.0259 28.9658 82.4205 30.6064C83.8267 32.2354 84.5298 34.415 84.5298 37.1455C84.5298 37.2861 84.524 37.5439 84.5123 37.9189C84.5123 38.2939 84.5123 38.5635 84.5123 38.7275H71.2759C71.3111 40.9189 71.8736 42.6299 72.9634 43.8604C74.065 45.0791 75.5416 45.6885 77.3931 45.6885C79.4322 45.6885 81.4771 45.1494 83.5279 44.0713L83.9849 46.4443C82.0279 47.6396 79.7955 48.2373 77.2877 48.2373ZM96.7642 48.2373C93.9283 48.2373 91.7076 47.3174 90.1021 45.4775C88.5084 43.6377 87.7115 41.2295 87.7115 38.2529C87.7232 35.2529 88.5377 32.8213 90.1548 30.958C91.7838 29.083 94.0103 28.1455 96.8345 28.1455C97.8306 28.1455 98.7916 28.2686 99.7173 28.5146C100.655 28.7607 101.393 29.083 101.932 29.4814L101.124 31.7666C99.7525 31.0283 98.3052 30.6592 96.7818 30.6592C94.9185 30.6592 93.442 31.3389 92.3521 32.6982C91.274 34.0576 90.7349 35.915 90.7349 38.2705C90.7349 40.5674 91.2681 42.3896 92.3345 43.7373C93.4127 45.0732 94.9009 45.7412 96.7994 45.7412C98.3111 45.7412 99.858 45.3311 101.44 44.5107L101.809 46.8486C100.532 47.7744 98.8502 48.2373 96.7642 48.2373ZM114.272 28.374C114.799 28.374 115.28 28.4092 115.713 28.4795L115.608 31.1865C115.069 31.0928 114.6 31.0459 114.202 31.0459C112.561 31.0459 111.225 31.6201 110.194 32.7686C109.174 33.9053 108.665 35.3174 108.665 37.0049V47.833H105.729C105.717 35.9971 105.711 29.5693 105.711 28.5498H108.155L108.436 32.0127C109.104 30.9229 109.954 30.0439 110.985 29.376C112.016 28.708 113.112 28.374 114.272 28.374ZM123.958 45.8643C125.352 45.8643 126.577 45.4834 127.631 44.7217C128.698 43.9482 129.383 42.9111 129.688 41.6104V38.3584C129.629 38.3584 129.272 38.3877 128.616 38.4463C127.971 38.5049 127.549 38.54 127.35 38.5518C124.807 38.7744 123.032 39.1904 122.024 39.7998C121.028 40.4092 120.53 41.3877 120.53 42.7354C120.53 43.7666 120.835 44.5459 121.444 45.0732C122.053 45.6006 122.891 45.8643 123.958 45.8643ZM130.338 47.833C130.163 47.083 129.993 46.2744 129.829 45.4072C128.762 46.4736 127.76 47.2119 126.823 47.6221C125.885 48.0322 124.784 48.2373 123.518 48.2373C121.713 48.2373 120.26 47.7686 119.159 46.8311C118.069 45.8818 117.524 44.5225 117.524 42.7529C117.524 40.7842 118.268 39.3252 119.756 38.376C121.256 37.4268 123.413 36.835 126.225 36.6006C126.612 36.5654 127.192 36.5186 127.965 36.46C128.751 36.3896 129.336 36.3369 129.723 36.3018V34.5967C129.723 33.2373 129.407 32.2295 128.774 31.5732C128.141 30.917 127.145 30.5889 125.786 30.5889C123.887 30.5889 121.971 31.0576 120.038 31.9951C119.979 31.8545 119.827 31.4502 119.581 30.7822C119.335 30.1025 119.206 29.751 119.194 29.7275C120.049 29.2471 121.063 28.8662 122.235 28.585C123.419 28.292 124.62 28.1455 125.838 28.1455C128.241 28.1455 129.969 28.6729 131.024 29.7275C132.09 30.7705 132.624 32.5518 132.624 35.0713V47.833H130.338ZM145.842 48.2373C143.006 48.2373 140.786 47.3174 139.18 45.4775C137.586 43.6377 136.79 41.2295 136.79 38.2529C136.801 35.2529 137.616 32.8213 139.233 30.958C140.862 29.083 143.088 28.1455 145.913 28.1455C146.909 28.1455 147.87 28.2686 148.795 28.5146C149.733 28.7607 150.471 29.083 151.01 29.4814L150.202 31.7666C148.831 31.0283 147.383 30.6592 145.86 30.6592C143.997 30.6592 142.52 31.3389 141.43 32.6982C140.352 34.0576 139.813 35.915 139.813 38.2705C139.813 40.5674 140.346 42.3896 141.413 43.7373C142.491 45.0732 143.979 45.7412 145.878 45.7412C147.389 45.7412 148.936 45.3311 150.518 44.5107L150.887 46.8486C149.61 47.7744 147.928 48.2373 145.842 48.2373ZM154.737 47.833V21.0615L157.655 20.8857V34.8955V37.3564C157.725 37.2861 157.831 37.1689 157.971 37.0049C158.112 36.8408 158.223 36.7178 158.305 36.6357C159.325 35.5225 161.961 32.8271 166.215 28.5498H169.942L161.926 36.6709L170.504 47.833H166.848L159.799 38.3408L157.655 40.1865V47.833H154.737ZM178.204 48.1846C176.329 48.1846 174.999 47.6807 174.213 46.6729C173.44 45.665 173.053 43.9131 173.053 41.417V21.0615L175.971 20.8857V40.2568C175.971 41.0537 175.977 41.6924 175.989 42.1729C176.012 42.6533 176.059 43.1279 176.129 43.5967C176.2 44.0537 176.294 44.3994 176.411 44.6338C176.528 44.8682 176.698 45.085 176.92 45.2842C177.143 45.4717 177.407 45.6006 177.711 45.6709C178.028 45.7295 178.415 45.7588 178.872 45.7588C179.247 45.7588 179.985 45.6885 181.086 45.5479L181.245 47.8857C180.038 48.085 179.024 48.1846 178.204 48.1846ZM194.147 32.1182C193.292 31.0869 192.114 30.5713 190.614 30.5713C189.114 30.5713 187.889 31.1045 186.94 32.1709C185.991 33.2256 185.434 34.6729 185.27 36.5127H195.448C195.448 34.6025 195.014 33.1377 194.147 32.1182ZM191.194 48.2373C188.393 48.2373 186.184 47.3467 184.567 45.5654C182.961 43.7842 182.159 41.3467 182.159 38.2529C182.159 35.2646 182.938 32.8447 184.497 30.9932C186.055 29.1299 188.106 28.1807 190.649 28.1455C193.04 28.1455 194.932 28.9658 196.327 30.6064C197.733 32.2354 198.436 34.415 198.436 37.1455C198.436 37.2861 198.43 37.5439 198.419 37.9189C198.419 38.2939 198.419 38.5635 198.419 38.7275H185.182C185.217 40.9189 185.78 42.6299 186.87 43.8604C187.971 45.0791 189.448 45.6885 191.299 45.6885C193.338 45.6885 195.383 45.1494 197.434 44.0713L197.891 46.4443C195.934 47.6396 193.702 48.2373 191.194 48.2373Z" fill="#F4F4F4"/>
<g filter="url(#filter0_di_1029_3404)">
<path d="M30.3462 32.0461C30.3462 33.8143 29.2353 35.653 26.9437 37.1342C24.6697 38.6039 21.4233 39.5702 17.7477 39.5702C14.0722 39.5702 10.8258 38.6039 8.55182 37.1342C6.2602 35.653 5.14926 33.8143 5.14926 32.0461C5.14926 30.2779 6.2602 28.4392 8.55182 26.958C10.8258 25.4883 14.0722 24.522 17.7477 24.522C21.4233 24.522 24.6697 25.4883 26.9437 26.958C29.2353 28.4392 30.3462 30.2779 30.3462 32.0461Z" stroke="#F4F4F4" stroke-width="3.49958"/>
<path fill-rule="evenodd" clip-rule="evenodd" d="M5.87691 37.1774C5.23228 37.6845 4.6378 38.2321 4.09997 38.8152C4.74251 39.7688 5.53878 40.6468 6.46239 41.4282C5.77497 42.3153 5.49958 43.1827 5.49958 43.9291C5.49958 45.1997 6.2976 46.8209 8.56759 48.2927C10.8034 49.7423 14.1013 50.7533 17.9231 50.7533C21.7448 50.7533 25.0427 49.7423 27.2786 48.2927C29.5486 46.8209 30.3466 45.1997 30.3466 43.9291C30.3466 43.1109 30.0157 42.1474 29.174 41.172C30.0464 40.391 30.7953 39.5205 31.3964 38.5801C30.4871 37.6373 29.4269 36.7923 28.2449 36.0679C31.6724 37.9615 33.8462 40.7807 33.8462 43.9291C33.8462 49.6307 26.7171 54.2528 17.9231 54.2528C9.129 54.2528 2 49.6307 2 43.9291C2 41.3477 3.46134 38.9875 5.87691 37.1774ZM26.6611 39.1917C24.3911 37.7123 21.3961 36.7555 17.8591 36.7555C13.7494 36.7555 10.3715 38.0472 8.01228 39.9496C8.18671 39.8207 8.37167 39.6925 8.56759 39.5655C10.8034 38.1159 14.1013 37.1049 17.9231 37.1049C21.407 37.1049 24.4556 37.9451 26.6611 39.1917Z" fill="#F4F4F4"/>
<path d="M30.3467 31.6958V1.24951" stroke="#F4F4F4" stroke-width="3.49958" stroke-linejoin="round"/>
</g>
<defs>
<filter id="filter0_di_1029_3404" x="0.525641" y="0.0914699" width="34.7948" height="56.2256" filterUnits="userSpaceOnUse" color-interpolation-filters="sRGB">
<feFlood flood-opacity="0" result="BackgroundImageFix"/>
<feColorMatrix in="SourceAlpha" type="matrix" values="0 0 0 0 0 0 0 0 0 0 0 0 0 0 0 0 0 0 127 0" result="hardAlpha"/>
<feOffset dy="0.589744"/>
<feGaussianBlur stdDeviation="0.737179"/>
<feComposite in2="hardAlpha" operator="out"/>
<feColorMatrix type="matrix" values="0 0 0 0 1 0 0 0 0 1 0 0 0 0 1 0 0 0 0.12 0"/>
<feBlend mode="normal" in2="BackgroundImageFix" result="effect1_dropShadow_1029_3404"/>
<feBlend mode="normal" in="SourceGraphic" in2="effect1_dropShadow_1029_3404" result="shape"/>
<feColorMatrix in="SourceAlpha" type="matrix" values="0 0 0 0 0 0 0 0 0 0 0 0 0 0 0 0 0 0 127 0" result="hardAlpha"/>
<feOffset dy="-1.15804"/>
<feGaussianBlur stdDeviation="1.15804"/>
<feComposite in2="hardAlpha" operator="arithmetic" k2="-1" k3="1"/>
<feColorMatrix type="matrix" values="0 0 0 0 0 0 0 0 0 0 0 0 0 0 0 0 0 0 0.25 0"/>
<feBlend mode="normal" in2="shape" result="effect2_innerShadow_1029_3404"/>
</filter>
</defs>
</svg>
