<svg width="173" height="46" viewBox="0 0 173 46" fill="none" xmlns="http://www.w3.org/2000/svg">
<path fill-rule="evenodd" clip-rule="evenodd" d="M19.5004 0L29.2502 5.75029L39 11.5006V34.5002L29.2502 40.2497L19.5004 46L9.74981 40.2497L0 34.5002V11.4998L9.74981 5.75029L19.5004 0Z" fill="#F85E11"/>
<path fill-rule="evenodd" clip-rule="evenodd" d="M14.7589 23.1018V18.0554L11.709 14.9399V23.1018C11.709 25.2125 12.5298 27.2367 13.991 28.7292C15.4521 30.2217 17.4338 31.0602 19.5002 31.0602C21.5666 31.0602 23.5484 30.2217 25.0095 28.7292C26.4707 27.2367 27.2915 25.2125 27.2915 23.1018V16.4949C27.2826 16.0879 27.1179 15.7005 26.8329 15.4159C26.5479 15.1312 26.1652 14.9718 25.7666 14.9718C25.3679 14.9718 24.9851 15.1312 24.7001 15.4159C24.4151 15.7005 24.2505 16.0879 24.2416 16.4949V23.1018C24.2416 24.3862 23.742 25.6181 22.8528 26.5263C21.9636 27.4346 20.7577 27.9448 19.5002 27.9448C18.2427 27.9448 17.0368 27.4346 16.1476 26.5263C15.2584 25.6181 14.7589 24.3862 14.7589 23.1018Z" fill="white"/>
<path d="M74.2808 11.3529V25.4706C74.2808 28.6471 73.4178 31.0353 71.6918 32.6353C69.9658 34.2118 67.4486 35 64.1404 35C60.8322 35 58.3151 34.2118 56.589 32.6353C54.863 31.0353 54 28.6471 54 25.4706V11.3529H58.9623V25.2588C58.9623 27.2118 59.3818 28.6588 60.2209 29.6C61.0839 30.5412 62.3904 31.0118 64.1404 31.0118C65.8904 31.0118 67.185 30.5412 68.024 29.6C68.863 28.6588 69.2826 27.2118 69.2826 25.2588V11.3529H74.2808ZM88.663 11C90.8205 11 92.7143 11.3647 94.3445 12.0941C95.9746 12.8235 97.365 13.9059 98.5157 15.3412L95.7469 18.4824C94.764 17.2588 93.6852 16.3647 92.5106 15.8C91.3599 15.2118 90.0174 14.9176 88.4832 14.9176C86.9489 14.9176 85.8342 15.2 85.139 15.7647C84.4438 16.3059 84.0962 16.9647 84.0962 17.7412C84.0962 18.3765 84.3359 18.9176 84.8154 19.3647C85.3188 19.7882 86.1938 20.1412 87.4404 20.4235L91.8633 21.4118C94.1887 21.9294 95.8667 22.7059 96.8976 23.7412C97.9284 24.7529 98.4438 26.0706 98.4438 27.6941C98.4438 29.2235 98.0363 30.5412 97.2212 31.6471C96.4061 32.7294 95.2674 33.5647 93.8051 34.1529C92.3428 34.7176 90.6647 35 88.7709 35C86.3017 35 84.1322 34.5765 82.2623 33.7294C80.3924 32.8824 78.9181 31.7882 77.8393 30.4471L80.6441 27.1647C81.4592 28.2941 82.5739 29.2353 83.9883 29.9882C85.4267 30.7176 87.0209 31.0824 88.7709 31.0824C90.2332 31.0824 91.3599 30.8471 92.151 30.3765C92.9421 29.8824 93.3376 29.1882 93.3376 28.2941C93.3376 27.7059 93.1219 27.1882 92.6904 26.7412C92.2828 26.2941 91.5157 25.9529 90.389 25.7176L85.5705 24.6588C83.4609 24.2118 81.8308 23.4824 80.6801 22.4706C79.5294 21.4588 78.9541 20.0824 78.9541 18.3412C78.9541 16.9529 79.3376 15.7059 80.1048 14.6C80.8719 13.4941 81.9746 12.6235 83.413 11.9882C84.8753 11.3294 86.6253 11 88.663 11ZM112.308 11.3529C116.024 11.3529 118.9 12.3647 120.938 14.3882C122.976 16.4118 123.995 19.2824 123.995 23C123.995 26.7176 122.976 29.5882 120.938 31.6118C118.9 33.6353 116.024 34.6471 112.308 34.6471H103.138V11.3529H112.308ZM112.056 30.7647C114.31 30.7647 116 30.1059 117.126 28.7882C118.277 27.4471 118.852 25.5176 118.852 23C118.852 20.4824 118.277 18.5647 117.126 17.2471C116 15.9059 114.31 15.2353 112.056 15.2353H108.101V30.7647H112.056ZM125.445 34.6471L134.111 11.3529H140.044L148.711 34.6471H143.568L141.591 28.9647H132.457L130.515 34.6471H125.445ZM135.981 18.7294L133.68 25.3647H140.368L138.139 18.8L137.06 15.2706H136.988L135.981 18.7294ZM161.601 11C163.95 11 165.976 11.4824 167.678 12.4471C169.38 13.4118 170.687 14.7882 171.598 16.5765C172.533 18.3647 173 20.5059 173 23C173 25.4941 172.533 27.6353 171.598 29.4235C170.687 31.2118 169.38 32.5882 167.678 33.5529C165.976 34.5176 163.95 35 161.601 35C159.252 35 157.214 34.5176 155.488 33.5529C153.786 32.5882 152.467 31.2118 151.533 29.4235C150.622 27.6353 150.166 25.4941 150.166 23C150.166 20.5059 150.622 18.3647 151.533 16.5765C152.467 14.7882 153.786 13.4118 155.488 12.4471C157.214 11.4824 159.252 11 161.601 11ZM161.601 14.9882C159.587 14.9882 158.029 15.6824 156.926 17.0706C155.848 18.4353 155.308 20.4118 155.308 23C155.308 25.5882 155.848 27.5765 156.926 28.9647C158.029 30.3294 159.587 31.0118 161.601 31.0118C163.591 31.0118 165.125 30.3294 166.204 28.9647C167.307 27.5765 167.858 25.5882 167.858 23C167.858 20.4118 167.307 18.4353 166.204 17.0706C165.125 15.6824 163.591 14.9882 161.601 14.9882Z" fill="url(#paint0_linear_484_400)"/>
<defs>
<linearGradient id="paint0_linear_484_400" x1="113.304" y1="2.29412" x2="113.304" y2="43.4706" gradientUnits="userSpaceOnUse">
<stop stop-color="#F88311"/>
<stop offset="1" stop-color="#F83811"/>
</linearGradient>
</defs>
</svg>
