<svg width="250" height="49" viewBox="0 0 250 49" fill="none" xmlns="http://www.w3.org/2000/svg">
<path d="M2.40123 17.2919V23.5364H4.899V18.5408H9.89453V16.0431H3.65011C3.31889 16.0431 3.00123 16.1746 2.76702 16.4088C2.53281 16.6431 2.40123 16.9607 2.40123 17.2919V17.2919ZM24.8811 23.5364V17.2919C24.8811 16.9607 24.7496 16.6431 24.5154 16.4088C24.2811 16.1746 23.9635 16.0431 23.6323 16.0431H17.3878V18.5408H22.3834V23.5364H24.8811ZM22.3834 36.0252H17.3878V38.523H23.6323C23.9635 38.523 24.2811 38.3914 24.5154 38.1572C24.7496 37.923 24.8811 37.6053 24.8811 37.2741V31.0297H22.3834V36.0252ZM9.89453 38.523V36.0252H4.899V31.0297H2.40123V37.2741C2.40123 37.6053 2.53281 37.923 2.76702 38.1572C3.00123 38.3914 3.31889 38.523 3.65011 38.523H9.89453ZM1.15234 26.0341H26.13V28.5319H1.15234V26.0341Z" fill="url(#paint0_linear_8871_5625)"/>
<path d="M41.3966 33.6106C39.534 33.6106 38.0503 33.2124 36.9456 32.4159C35.8537 31.6067 35.2885 30.4506 35.25 28.9476H38.6798C38.8211 30.2579 39.7203 30.913 41.3773 30.913C41.9939 30.913 42.5142 30.7974 42.9381 30.5662C43.3748 30.3221 43.5932 29.956 43.5932 29.4679C43.5932 29.1339 43.4583 28.8577 43.1886 28.6393C42.9188 28.4081 42.6426 28.2475 42.36 28.1576C42.0903 28.0677 41.57 27.9264 40.7993 27.7337C40.7608 27.7208 40.7351 27.7144 40.7222 27.7144C40.7094 27.7016 40.6901 27.6952 40.6644 27.6952C40.6387 27.6823 40.613 27.6759 40.5873 27.6759C39.9964 27.5346 39.5083 27.4126 39.1229 27.3098C38.7504 27.1942 38.3201 27.0272 37.8319 26.8088C37.3567 26.5776 36.9777 26.3271 36.6951 26.0573C36.4125 25.7876 36.1684 25.4343 35.9629 24.9976C35.7702 24.548 35.6739 24.047 35.6739 23.4946C35.6739 22.0816 36.1749 21.0218 37.1768 20.3153C38.1916 19.6088 39.5147 19.2556 41.1461 19.2556C42.7133 19.2556 43.9914 19.6152 44.9806 20.3346C45.9825 21.0539 46.5156 22.1073 46.5798 23.4946H43.2464C43.1822 22.9679 42.9574 22.5633 42.572 22.2807C42.1866 21.9853 41.6728 21.8375 41.0305 21.8375C40.4396 21.8375 39.9579 21.9596 39.5854 22.2036C39.2257 22.4349 39.0459 22.7432 39.0459 23.1285C39.0459 23.5653 39.2642 23.8864 39.701 24.0919C40.1377 24.2846 40.9599 24.5159 42.1674 24.7856C42.9253 24.9655 43.5483 25.1453 44.0364 25.3251C44.5245 25.4921 45.0191 25.7362 45.5201 26.0573C46.0339 26.3785 46.4128 26.796 46.6569 27.3098C46.9138 27.8108 47.0423 28.4145 47.0423 29.121C47.0423 30.5212 46.5092 31.6195 45.443 32.4159C44.3897 33.2124 43.0409 33.6106 41.3966 33.6106ZM51.6142 30.5469C51.9739 31.0864 52.4877 31.3562 53.1557 31.3562C53.8236 31.3562 54.3375 31.0864 54.6971 30.5469C55.0697 30.0074 55.2559 29.2816 55.2559 28.3696C55.2559 27.4575 55.0697 26.7317 54.6971 26.1922C54.3375 25.6398 53.8236 25.3637 53.1557 25.3637C52.4877 25.3637 51.9739 25.6334 51.6142 26.1729C51.2545 26.7125 51.0747 27.4447 51.0747 28.3696C51.0747 29.2816 51.2545 30.0074 51.6142 30.5469ZM56.9708 32.1076C56.0074 33.0968 54.7421 33.5913 53.1749 33.5913C51.6078 33.5913 50.336 33.0968 49.3598 32.1076C48.3835 31.1185 47.8954 29.8725 47.8954 28.3696C47.8954 26.8666 48.3835 25.6206 49.3598 24.6315C50.336 23.6423 51.6078 23.1478 53.1749 23.1478C54.7421 23.1478 56.0074 23.6423 56.9708 24.6315C57.9471 25.6206 58.4352 26.8666 58.4352 28.3696C58.4352 29.8725 57.9471 31.1185 56.9708 32.1076ZM59.5162 33.283V19.506H62.6955V33.283H59.5162ZM64.22 33.283V23.4175H67.3608V33.283H64.22ZM64.22 22.0495V19.506H67.3608V22.0495H64.22ZM72.7407 33.5913C71.4562 33.5913 70.4157 33.1224 69.6192 32.1847C68.8228 31.247 68.4246 29.9688 68.4246 28.3503C68.4246 26.8088 68.8228 25.5564 69.6192 24.5929C70.4285 23.6167 71.469 23.1285 72.7407 23.1285C73.9225 23.1285 74.841 23.5974 75.4961 24.5351H75.5539V19.506H78.6947V33.283H75.6888V31.9535H75.6503C75.008 33.0454 74.0382 33.5913 72.7407 33.5913ZM73.55 31.1057C74.1923 31.1057 74.6997 30.8552 75.0722 30.3542C75.4448 29.8404 75.631 29.1724 75.631 28.3503C75.631 27.4896 75.4576 26.8024 75.1108 26.2886C74.7639 25.7619 74.2565 25.4985 73.5886 25.4985C72.972 25.4985 72.4838 25.7555 72.1242 26.2693C71.7773 26.7831 71.6039 27.4639 71.6039 28.3117C71.6039 29.1724 71.7773 29.8532 72.1242 30.3542C72.471 30.8552 72.9463 31.1057 73.55 31.1057ZM80.1955 33.283V23.4175H83.3363V33.283H80.1955ZM80.1955 22.0495V19.506H83.3363V22.0495H80.1955ZM88.7548 33.3986C87.7529 33.3986 86.9757 33.1995 86.4233 32.8013C85.8838 32.3902 85.6141 31.6837 85.6141 30.6818V25.3829H84.3038V23.4175H85.6141V20.2961H88.6777V23.4175H90.4697V25.3829H88.6777V30.0074C88.6777 30.3671 88.7677 30.6175 88.9475 30.7588C89.1402 30.9001 89.4164 30.9708 89.7761 30.9708C89.8788 30.9708 90.0137 30.9708 90.1807 30.9708C90.3477 30.958 90.444 30.9515 90.4697 30.9515V33.2445C90.11 33.3472 89.5384 33.3986 88.7548 33.3986ZM92.2084 36.5394V34.0923H93.2874C94.1481 34.0923 94.5784 33.7455 94.5784 33.0518C94.5784 32.7178 94.3793 32.037 93.9811 31.0093L91.0716 23.4175H94.3857L95.7153 27.6181L96.3319 29.8918H96.3704C96.5502 29.0183 96.7429 28.2604 96.9485 27.6181L98.2394 23.4175H101.38L97.9697 33.4179C97.5715 34.574 97.0962 35.3833 96.5438 35.8457C96.0043 36.3082 95.24 36.5394 94.2509 36.5394H92.2084ZM107.764 33.6106C105.901 33.6106 104.418 33.2124 103.313 32.4159C102.221 31.6067 101.656 30.4506 101.617 28.9476H105.047C105.188 30.2579 106.087 30.913 107.745 30.913C108.361 30.913 108.881 30.7974 109.305 30.5662C109.742 30.3221 109.96 29.956 109.96 29.4679C109.96 29.1339 109.826 28.8577 109.556 28.6393C109.286 28.4081 109.01 28.2475 108.727 28.1576C108.457 28.0677 107.937 27.9264 107.166 27.7337C107.128 27.7208 107.102 27.7144 107.089 27.7144C107.077 27.7016 107.057 27.6952 107.032 27.6952C107.006 27.6823 106.98 27.6759 106.955 27.6759C106.364 27.5346 105.875 27.4126 105.49 27.3098C105.118 27.1942 104.687 27.0272 104.199 26.8088C103.724 26.5776 103.345 26.3271 103.062 26.0573C102.78 25.7876 102.536 25.4343 102.33 24.9976C102.137 24.548 102.041 24.047 102.041 23.4946C102.041 22.0816 102.542 21.0218 103.544 20.3153C104.559 19.6088 105.882 19.2556 107.513 19.2556C109.08 19.2556 110.359 19.6152 111.348 20.3346C112.35 21.0539 112.883 22.1073 112.947 23.4946H109.614C109.549 22.9679 109.325 22.5633 108.939 22.2807C108.554 21.9853 108.04 21.8375 107.398 21.8375C106.807 21.8375 106.325 21.9596 105.953 22.2036C105.593 22.4349 105.413 22.7432 105.413 23.1285C105.413 23.5653 105.631 23.8864 106.068 24.0919C106.505 24.2846 107.327 24.5159 108.535 24.7856C109.292 24.9655 109.915 25.1453 110.404 25.3251C110.892 25.4921 111.386 25.7362 111.887 26.0573C112.401 26.3785 112.78 26.796 113.024 27.3098C113.281 27.8108 113.409 28.4145 113.409 29.121C113.409 30.5212 112.876 31.6195 111.81 32.4159C110.757 33.2124 109.408 33.6106 107.764 33.6106ZM119.504 33.5913C117.936 33.5913 116.671 33.0968 115.708 32.1076C114.744 31.1185 114.263 29.8725 114.263 28.3696C114.263 26.8666 114.738 25.6206 115.688 24.6315C116.639 23.6423 117.885 23.1478 119.427 23.1478C120.737 23.1478 121.809 23.4946 122.644 24.1883C123.479 24.882 123.967 25.794 124.109 26.9244H121.084C120.865 25.9481 120.326 25.46 119.465 25.46C118.797 25.46 118.29 25.7169 117.943 26.2307C117.609 26.7446 117.442 27.4575 117.442 28.3696C117.442 29.2687 117.615 29.9753 117.962 30.4891C118.309 30.9901 118.81 31.2406 119.465 31.2406C120.467 31.2406 121.039 30.6753 121.18 29.5449H124.186C124.147 30.7139 123.698 31.6837 122.837 32.4545C121.989 33.2124 120.878 33.5913 119.504 33.5913ZM128.284 33.5335C127.27 33.5335 126.454 33.2702 125.837 32.7435C125.221 32.2168 124.912 31.4782 124.912 30.5276C124.912 29.5257 125.246 28.7999 125.914 28.3503C126.582 27.8878 127.507 27.5795 128.689 27.4254C129.653 27.3098 130.308 27.1813 130.654 27.04C131.014 26.8859 131.194 26.6482 131.194 26.3271C131.194 25.6206 130.744 25.2673 129.845 25.2673C128.882 25.2673 128.349 25.6912 128.246 26.539H125.356C125.394 25.5628 125.792 24.7535 126.55 24.1112C127.321 23.4689 128.413 23.1478 129.826 23.1478C131.239 23.1478 132.305 23.4175 133.025 23.9571C133.859 24.5608 134.277 25.4985 134.277 26.7703V31.7415C134.277 32.5251 134.393 32.994 134.624 33.1481V33.283H131.579C131.451 33.1032 131.342 32.7371 131.252 32.1847H131.213C130.584 33.0839 129.608 33.5335 128.284 33.5335ZM129.286 31.5296C129.877 31.5296 130.353 31.369 130.712 31.0479C131.085 30.7139 131.271 30.2836 131.271 29.7569V28.5815C130.963 28.7357 130.423 28.9091 129.653 29.1018C129.023 29.2431 128.58 29.4101 128.323 29.6027C128.066 29.7954 127.938 30.0716 127.938 30.4313C127.938 31.1635 128.387 31.5296 129.286 31.5296ZM135.799 33.283V23.4175H138.825V24.7663H138.882C139.64 23.6745 140.655 23.1285 141.927 23.1285C142.993 23.1285 143.828 23.4754 144.432 24.169C145.048 24.8498 145.357 25.749 145.357 26.8666V33.283H142.216V27.5025C142.216 26.963 142.081 26.539 141.811 26.2307C141.554 25.9096 141.175 25.749 140.674 25.749C140.161 25.749 139.743 25.9417 139.422 26.3271C139.101 26.7125 138.94 27.2134 138.94 27.83V33.283H135.799Z" fill="white"/>
<line x1="165.22" y1="8.9082" x2="165.22" y2="44.5446" stroke="#8A94A6" stroke-width="0.802854"/>
<path d="M181.19 14V6.08087H184.16C184.768 6.08087 185.279 6.1943 185.691 6.42115C186.106 6.648 186.419 6.95992 186.631 7.3569C186.845 7.75131 186.952 8.19986 186.952 8.70254C186.952 9.21037 186.845 9.66149 186.631 10.0559C186.417 10.4503 186.101 10.7609 185.683 10.9878C185.266 11.2121 184.752 11.3242 184.141 11.3242H182.172V10.1448H183.947C184.303 10.1448 184.594 10.083 184.821 9.95923C185.048 9.8355 185.216 9.66536 185.324 9.44882C185.435 9.23228 185.49 8.98352 185.49 8.70254C185.49 8.42155 185.435 8.17408 185.324 7.96012C185.216 7.74616 185.047 7.57989 184.817 7.46131C184.59 7.34015 184.298 7.27957 183.94 7.27957H182.625V14H181.19ZM190.642 14.116C190.062 14.116 189.559 13.9884 189.134 13.7332C188.708 13.478 188.378 13.121 188.144 12.6621C187.912 12.2032 187.796 11.6671 187.796 11.0535C187.796 10.44 187.912 9.90252 188.144 9.44109C188.378 8.97965 188.708 8.62133 189.134 8.36613C189.559 8.11092 190.062 7.98332 190.642 7.98332C191.222 7.98332 191.724 8.11092 192.15 8.36613C192.575 8.62133 192.904 8.97965 193.136 9.44109C193.37 9.90252 193.488 10.44 193.488 11.0535C193.488 11.6671 193.37 12.2032 193.136 12.6621C192.904 13.121 192.575 13.478 192.15 13.7332C191.724 13.9884 191.222 14.116 190.642 14.116ZM190.649 12.9946C190.964 12.9946 191.227 12.9083 191.438 12.7356C191.65 12.5603 191.807 12.3257 191.91 12.0318C192.016 11.7379 192.068 11.4106 192.068 11.0497C192.068 10.6862 192.016 10.3575 191.91 10.0636C191.807 9.76718 191.65 9.53131 191.438 9.35602C191.227 9.18073 190.964 9.09308 190.649 9.09308C190.327 9.09308 190.059 9.18073 189.845 9.35602C189.634 9.53131 189.475 9.76718 189.369 10.0636C189.266 10.3575 189.215 10.6862 189.215 11.0497C189.215 11.4106 189.266 11.7379 189.369 12.0318C189.475 12.3257 189.634 12.5603 189.845 12.7356C190.059 12.9083 190.327 12.9946 190.649 12.9946ZM195.731 14L194.053 8.06065H195.48L196.524 12.2368H196.578L197.645 8.06065H199.057L200.124 12.2136H200.182L201.21 8.06065H202.641L200.959 14H199.501L198.388 9.9863H198.306L197.193 14H195.731ZM206.078 14.116C205.482 14.116 204.968 13.9923 204.535 13.7448C204.104 13.4947 203.773 13.1416 203.541 12.6853C203.309 12.2264 203.193 11.6864 203.193 11.0651C203.193 10.4542 203.309 9.91799 203.541 9.45656C203.776 8.99254 204.103 8.63165 204.523 8.37386C204.943 8.1135 205.437 7.98332 206.004 7.98332C206.37 7.98332 206.716 8.04261 207.041 8.16119C207.368 8.27719 207.657 8.45764 207.907 8.70254C208.159 8.94743 208.358 9.25935 208.502 9.63829C208.647 10.0147 208.719 10.4632 208.719 10.9839V11.4131H203.85V10.4696H207.377C207.374 10.2016 207.316 9.9631 207.203 9.7543C207.09 9.54291 206.931 9.37664 206.727 9.25548C206.526 9.13432 206.292 9.07375 206.024 9.07375C205.737 9.07375 205.486 9.14335 205.27 9.28255C205.053 9.41918 204.884 9.59963 204.763 9.8239C204.644 10.0456 204.584 10.2892 204.581 10.5547V11.3783C204.581 11.7238 204.644 12.0202 204.771 12.2677C204.897 12.5126 205.074 12.7008 205.3 12.8322C205.527 12.9611 205.793 13.0256 206.097 13.0256C206.301 13.0256 206.485 12.9972 206.65 12.9405C206.815 12.8812 206.958 12.7949 207.079 12.6814C207.2 12.568 207.292 12.4275 207.354 12.26L208.661 12.4069C208.578 12.7523 208.421 13.0539 208.189 13.3117C207.96 13.5669 207.666 13.7654 207.307 13.9072C206.949 14.0464 206.539 14.116 206.078 14.116ZM209.903 14V8.06065H211.26V9.05055H211.322C211.43 8.70769 211.616 8.44346 211.879 8.25786C212.144 8.06968 212.447 7.97559 212.788 7.97559C212.865 7.97559 212.951 7.97945 213.047 7.98719C213.145 7.99234 213.226 8.00136 213.29 8.01425V9.30188C213.231 9.28126 213.137 9.26322 213.008 9.24775C212.882 9.2297 212.759 9.22068 212.641 9.22068C212.385 9.22068 212.156 9.27611 211.952 9.38695C211.751 9.49522 211.593 9.64603 211.477 9.83936C211.361 10.0327 211.303 10.2557 211.303 10.5083V14H209.903ZM216.605 14.116C216.009 14.116 215.495 13.9923 215.062 13.7448C214.632 13.4947 214.3 13.1416 214.068 12.6853C213.836 12.2264 213.72 11.6864 213.72 11.0651C213.72 10.4542 213.836 9.91799 214.068 9.45656C214.303 8.99254 214.63 8.63165 215.051 8.37386C215.471 8.1135 215.964 7.98332 216.531 7.98332C216.898 7.98332 217.243 8.04261 217.568 8.16119C217.895 8.27719 218.184 8.45764 218.434 8.70254C218.687 8.94743 218.885 9.25935 219.029 9.63829C219.174 10.0147 219.246 10.4632 219.246 10.9839V11.4131H214.378V10.4696H217.904C217.902 10.2016 217.844 9.9631 217.73 9.7543C217.617 9.54291 217.458 9.37664 217.255 9.25548C217.054 9.13432 216.819 9.07375 216.551 9.07375C216.265 9.07375 216.013 9.14335 215.797 9.28255C215.58 9.41918 215.411 9.59963 215.29 9.8239C215.172 10.0456 215.111 10.2892 215.109 10.5547V11.3783C215.109 11.7238 215.172 12.0202 215.298 12.2677C215.424 12.5126 215.601 12.7008 215.828 12.8322C216.055 12.9611 216.32 13.0256 216.624 13.0256C216.828 13.0256 217.012 12.9972 217.177 12.9405C217.342 12.8812 217.485 12.7949 217.606 12.6814C217.728 12.568 217.819 12.4275 217.881 12.26L219.188 12.4069C219.105 12.7523 218.948 13.0539 218.716 13.3117C218.487 13.5669 218.193 13.7654 217.835 13.9072C217.476 14.0464 217.066 14.116 216.605 14.116ZM222.634 14.1044C222.168 14.1044 221.75 13.9845 221.381 13.7448C221.013 13.5051 220.721 13.157 220.507 12.7008C220.294 12.2445 220.187 11.6903 220.187 11.0381C220.187 10.3781 220.295 9.82132 220.511 9.36762C220.73 8.91134 221.026 8.5672 221.397 8.33519C221.768 8.10061 222.182 7.98332 222.638 7.98332C222.986 7.98332 223.272 8.04261 223.497 8.16119C223.721 8.27719 223.899 8.41768 224.03 8.58267C224.162 8.74507 224.263 8.89845 224.336 9.04281H224.394V6.08087H225.797V14H224.421V13.0642H224.336C224.263 13.2086 224.159 13.362 224.022 13.5244C223.886 13.6842 223.705 13.8208 223.481 13.9343C223.257 14.0477 222.974 14.1044 222.634 14.1044ZM223.025 12.956C223.321 12.956 223.574 12.8761 223.783 12.7162C223.991 12.5538 224.15 12.3283 224.258 12.0396C224.367 11.7508 224.421 11.4144 224.421 11.0303C224.421 10.6462 224.367 10.3124 224.258 10.0288C224.153 9.74527 223.995 9.52487 223.787 9.36762C223.58 9.21037 223.326 9.13175 223.025 9.13175C222.713 9.13175 222.452 9.21295 222.244 9.37535C222.035 9.53776 221.878 9.76203 221.772 10.0482C221.666 10.3343 221.613 10.6617 221.613 11.0303C221.613 11.4015 221.666 11.7328 221.772 12.0241C221.88 12.3128 222.039 12.5409 222.248 12.7085C222.459 12.8735 222.718 12.956 223.025 12.956ZM230.23 14V6.08087H231.142V9.00414H231.219C231.286 8.90103 231.379 8.76956 231.498 8.60973C231.619 8.44733 231.792 8.30297 232.016 8.17666C232.243 8.04777 232.55 7.98332 232.936 7.98332C233.436 7.98332 233.877 8.10834 234.259 8.35839C234.64 8.60845 234.938 8.9629 235.152 9.42175C235.366 9.88061 235.473 10.422 235.473 11.0458C235.473 11.6748 235.366 12.22 235.152 12.6814C234.938 13.1403 234.641 13.496 234.263 13.7487C233.884 13.9987 233.447 14.1237 232.952 14.1237C232.57 14.1237 232.265 14.0606 232.035 13.9343C231.806 13.8054 231.629 13.6597 231.506 13.4973C231.382 13.3323 231.286 13.1957 231.219 13.0874H231.111V14H230.23ZM231.127 11.0303C231.127 11.4789 231.192 11.8746 231.324 12.2174C231.455 12.5577 231.647 12.8245 231.9 13.0178C232.153 13.2086 232.462 13.304 232.828 13.304C233.209 13.304 233.528 13.2034 233.783 13.0024C234.041 12.7987 234.234 12.5255 234.363 12.1826C234.495 11.8372 234.56 11.4531 234.56 11.0303C234.56 10.6127 234.496 10.2364 234.367 9.90123C234.241 9.56354 234.049 9.29673 233.791 9.10081C233.536 8.90232 233.215 8.80307 232.828 8.80307C232.457 8.80307 232.145 8.89716 231.892 9.08535C231.64 9.27095 231.449 9.53131 231.32 9.86643C231.191 10.199 231.127 10.5869 231.127 11.0303ZM237.244 16.2273C237.089 16.2273 236.951 16.2144 236.83 16.1886C236.709 16.1654 236.625 16.1422 236.579 16.119L236.811 15.3147C237.032 15.3714 237.228 15.392 237.398 15.3766C237.569 15.3611 237.719 15.2851 237.851 15.1484C237.985 15.0144 238.107 14.7966 238.218 14.4949L238.388 14.0309L236.192 8.06065H237.182L238.821 12.7936H238.883L240.523 8.06065H241.513L238.992 14.8662C238.878 15.1729 238.738 15.4268 238.57 15.6279C238.403 15.8316 238.208 15.9824 237.986 16.0803C237.767 16.1783 237.52 16.2273 237.244 16.2273Z" fill="#A7A7A7"/>
<path d="M205.012 25.7218C204.917 25.6767 204.822 25.6406 204.736 25.5955C204.091 25.3158 203.426 25.0721 202.761 24.8375C202.581 24.7834 202.41 24.7292 202.23 24.6661C201.632 24.4766 201.033 24.3051 200.416 24.1608C200.179 24.1066 199.932 24.0525 199.685 23.9893C199.134 23.863 198.565 23.7637 198.005 23.6916C197.72 23.6464 197.425 23.6103 197.15 23.5833C196.618 23.5201 196.077 23.475 195.536 23.4389C195.232 23.4209 194.928 23.4028 194.606 23.3938C194.33 23.3848 194.064 23.3848 193.78 23.3848C193.523 23.3848 193.276 23.3848 193.01 23.3938C192.707 23.4028 192.384 23.4118 192.08 23.4389C191.539 23.475 190.998 23.5201 190.466 23.5833C190.172 23.6194 189.887 23.6464 189.611 23.6916C189.051 23.7818 188.482 23.8811 187.931 23.9893C187.684 24.0435 187.447 24.0976 187.2 24.1608C186.592 24.3051 185.984 24.4766 185.386 24.6661C185.206 24.7202 185.035 24.7744 184.845 24.8375C184.171 25.0631 183.516 25.3067 182.87 25.5865C182.775 25.6316 182.68 25.6677 182.585 25.7128C181.845 26.0376 181.114 26.3986 180.411 26.7776C180.411 27.5536 180.449 28.3025 180.516 29.0515C180.525 29.1778 180.535 29.2861 180.554 29.4124C180.62 30.0711 180.715 30.7208 180.848 31.3614C180.886 31.56 180.933 31.7494 180.962 31.957C181.076 32.5255 181.237 33.0849 181.389 33.6353C181.456 33.879 181.541 34.1406 181.626 34.3843C181.788 34.8896 181.968 35.3768 182.168 35.8641C182.282 36.1438 182.405 36.4236 182.519 36.6943C183.155 36.1709 183.829 35.6836 184.532 35.2505C185.215 34.8264 185.937 34.4565 186.687 34.1316C187.418 33.8068 188.178 33.5361 188.966 33.3285C189.526 33.1751 190.115 33.0398 190.703 32.9405C190.931 32.9044 191.15 32.8774 191.377 32.8413C192.118 32.742 192.859 32.6879 193.628 32.6879C193.675 32.6879 193.723 32.6879 193.77 32.6879C193.827 32.6879 193.903 32.6879 193.96 32.6879C194.729 32.6969 195.479 32.751 196.21 32.8593C196.438 32.8954 196.666 32.9225 196.894 32.9676C197.482 33.0669 198.062 33.2022 198.622 33.3556C199.41 33.5812 200.16 33.8519 200.9 34.1677C201.651 34.4926 202.372 34.8715 203.056 35.2956C203.758 35.7288 204.432 36.216 205.059 36.7484C205.192 36.4687 205.306 36.1799 205.42 35.8912C205.61 35.422 205.781 34.9257 205.952 34.4474C205.277 33.9421 204.584 33.4729 203.844 33.0488C203.141 32.6337 202.401 32.2728 201.632 31.957C200.891 31.6412 200.122 31.3795 199.334 31.1539C199.049 31.0727 198.755 31.0005 198.46 30.9283C197.967 30.82 197.463 30.7118 196.951 30.6396C196.514 30.5764 196.068 30.5132 195.621 30.4681C195.261 30.432 194.881 30.414 194.501 30.405C194.254 30.3959 194.007 30.3959 193.751 30.3959C193.514 30.3959 193.295 30.3959 193.058 30.405C192.678 30.414 192.308 30.4411 191.938 30.4681C191.491 30.5042 191.045 30.5584 190.608 30.6215C190.105 30.7027 189.611 30.802 189.118 30.9103C188.823 30.9734 188.529 31.0546 188.235 31.1359C187.447 31.3614 186.678 31.6321 185.937 31.9299C185.168 32.2457 184.427 32.6157 183.725 33.0127C183.725 33.0037 183.715 32.9766 183.715 32.9676C183.487 32.2096 183.316 31.4336 183.174 30.6396C183.174 30.6215 183.165 30.6035 183.165 30.5854C183.022 29.7914 182.927 28.9883 182.88 28.1672C183.649 27.7972 184.437 27.4724 185.244 27.1836C185.253 27.1836 185.253 27.1746 185.263 27.1746C186.051 26.8949 186.867 26.6603 187.684 26.4617H187.693C188.482 26.2722 189.279 26.1189 190.096 26.0015C190.105 26.0015 190.134 26.0015 190.153 25.9925C190.931 25.8842 191.719 25.803 192.517 25.7669C192.536 25.7669 192.574 25.7669 192.602 25.7669C192.982 25.7579 193.371 25.7489 193.751 25.7489C194.15 25.7489 194.568 25.7579 194.947 25.7669C194.966 25.7669 195.004 25.7669 195.033 25.7669C195.83 25.8121 196.618 25.8752 197.397 25.9925C197.416 25.9925 197.435 25.9925 197.454 26.0015C198.27 26.1279 199.068 26.2813 199.856 26.4708H199.866C200.692 26.6693 201.499 26.9219 202.287 27.2017C202.296 27.2017 202.306 27.2017 202.306 27.2107C203.122 27.4994 203.91 27.8243 204.67 28.1942C205.467 28.5732 206.246 28.9973 206.996 29.4665C207.005 29.3402 207.015 29.2048 207.034 29.0875C207.1 28.3476 207.138 27.5987 207.138 26.8407C206.502 26.4166 205.771 26.0647 205.012 25.7218Z" fill="white"/>
<path d="M199.773 35.8616C199.043 35.5219 198.285 35.2387 197.499 35.0311C196.825 34.8424 196.114 34.7008 195.412 34.6253C195.272 34.6159 195.132 34.5876 195.01 34.5781C194.589 34.5404 194.168 34.5215 193.737 34.5215C193.316 34.5215 192.914 34.5309 192.511 34.5687C192.371 34.5781 192.24 34.5875 192.109 34.6159C191.388 34.7008 190.696 34.8235 190.013 35.0122C189.227 35.2199 188.459 35.503 187.739 35.8427C187.009 36.1825 186.316 36.5789 185.652 37.0319C184.978 37.5038 184.342 38.0134 183.752 38.5891C183.986 39.0327 184.239 39.4668 184.51 39.9009C184.688 40.184 184.856 40.4577 185.043 40.7314C185.334 41.1656 185.624 41.5808 185.932 41.9961C186.12 42.2414 186.307 42.4868 186.503 42.7228C186.85 43.1569 187.215 43.5627 187.579 43.978C187.757 44.1761 187.935 44.3649 188.122 44.5537C188.618 43.9213 189.227 43.374 189.91 42.9304C190.64 42.4585 191.463 42.1188 192.343 41.9394C192.811 41.8451 193.279 41.7979 193.784 41.7979C194.299 41.7979 194.785 41.8545 195.253 41.9489C196.133 42.1376 196.947 42.4774 197.677 42.9587C197.106 43.5438 196.507 44.0912 195.88 44.6197C195.862 44.6386 195.834 44.6575 195.815 44.6763C195.749 44.733 195.674 44.7896 195.609 44.8368C195.469 44.95 195.328 45.0633 195.178 45.1765C195.169 45.186 195.15 45.1954 195.141 45.2048C195.01 45.3087 194.879 45.403 194.739 45.5068C194.692 45.5446 194.636 45.5823 194.589 45.6107C194.486 45.6862 194.383 45.7617 194.28 45.8277C194.121 45.941 193.962 46.0448 193.803 46.158C193.176 45.7334 192.558 45.2803 191.969 44.799C191.098 45.0255 190.363 45.488 189.662 46.007C189.727 46.0637 189.723 46.0637 189.797 46.1203C189.825 46.1486 189.854 46.1769 189.9 46.2147C190.424 46.6582 190.967 47.0924 191.529 47.4982C191.622 47.5642 191.716 47.6303 191.809 47.6964C192.455 48.1683 193.129 48.5929 193.831 48.9988C194.168 48.8006 194.505 48.5929 194.832 48.3853C195.16 48.1777 195.487 47.9512 195.805 47.7247C195.908 47.6586 196.011 47.5737 196.114 47.4982C196.657 47.1018 197.19 46.6771 197.705 46.2335C197.789 46.158 197.874 46.0825 197.958 46.007C198.033 45.941 198.108 45.8749 198.173 45.8089C198.613 45.4125 199.043 44.9972 199.465 44.5725C199.661 44.3743 199.848 44.1761 200.035 43.9685C200.391 43.5721 200.747 43.1569 201.084 42.7511C201.28 42.5057 201.477 42.2509 201.673 41.9866C193.616 36.6166 188.309 41.0901 188.309 41.0901C188.291 41.0712 188.272 41.0429 188.253 41.024C187.776 40.42 187.327 39.7877 186.896 39.1365C187.542 38.6646 188.253 38.2682 188.993 37.9568C189.76 37.617 190.555 37.3622 191.379 37.1923C192.025 37.0602 192.689 36.9847 193.363 36.9564C193.503 36.9564 193.644 36.9469 193.784 36.9469C193.943 36.9469 194.093 36.947 194.252 36.9564C194.926 36.9753 195.59 37.0602 196.227 37.2018C197.059 37.3811 197.855 37.6359 198.613 37.9756C199.352 38.306 200.054 38.7023 200.7 39.1648C201.364 39.6367 201.973 40.1746 202.525 40.7692C202.712 40.486 202.899 40.1935 203.067 39.9009C203.32 39.4762 203.563 39.061 203.797 38.6268C203.18 38.0511 202.553 37.5226 201.879 37.0602C201.205 36.5978 200.503 36.2014 199.773 35.8616Z" fill="white"/>
<path d="M218.369 34.1047V32.3277H221.41V34.8518L219.41 36.8711H212.889V24.2807L215.049 22.2715H221.41V27.7842H218.369V25.048H215.929V34.1047H218.369Z" fill="white"/>
<path d="M228.261 36.8711L226.461 31.5906H225.66V36.8711H222.63V24.3312L224.83 22.2715H231.021V31.5502H229.381L231.301 36.8711H228.261ZM227.991 28.8544V25.048H225.66V28.8544H227.991Z" fill="white"/>
<path d="M232.431 22.2715H239.452V25.048H235.432V27.865H239.252V30.591H235.472V34.1047H239.552V36.8711H232.431V22.2715Z" fill="white"/>
<path d="M240.672 22.2715H246.893L249.223 24.5836V34.8518L247.193 36.8711H240.672V22.2715ZM246.183 34.1047V25.048H243.703V34.1047H246.183Z" fill="white"/>
<path d="M217.751 48.9988H212.706V46.1158H214.629V47.2434H215.822V45.7699L212.77 43.4443V39.7349H217.694V42.4897H215.949V41.5031H214.692V42.714L217.751 45.0331V48.9988Z" fill="white"/>
<path d="M220.505 43.5404H222.155V39.7349H224.078V48.9988H222.155V45.2958H220.505V48.9988H218.583V39.7349H220.505V43.5404Z" fill="white"/>
<path d="M226.826 42.5794V48.9988H224.903V42.5794H226.826ZM226.826 39.7349V42.0156H224.903V39.7349H226.826Z" fill="white"/>
<path d="M227.543 39.7349H231.998V41.4967H229.447V43.2841H231.871V45.0139H229.472V47.2434H232.062V48.9988H227.543V39.7349Z" fill="white"/>
<path d="M232.772 48.9988V39.7349H234.695V47.2434H237.386V48.9988H232.772Z" fill="white"/>
<path d="M238.217 39.7349H242.164L243.643 41.202V47.7175L242.355 48.9988H238.217V39.7349ZM241.714 47.2434V41.4967H240.14V47.2434H241.714Z" fill="white"/>
<path d="M249.456 48.9988H244.411V46.1158H246.334V47.2434H247.527V45.7699L244.474 43.4443V39.7349H249.399V42.4897H247.654V41.5031H246.397V42.714L249.456 45.0331V48.9988Z" fill="white"/>
<defs>
<linearGradient id="paint0_linear_8871_5625" x1="3.56091" y1="17.6488" x2="24.8365" y2="36.9173" gradientUnits="userSpaceOnUse">
<stop stop-color="#52FF00"/>
<stop offset="1" stop-color="#00EEFD"/>
</linearGradient>
</defs>
</svg>
