<svg width="33" height="32" viewBox="0 0 33 32" fill="none" xmlns="http://www.w3.org/2000/svg">
<path d="M51.3276 11.8651L51.1674 13.7531H47.0971V16.0091H50.5744V17.8491H47.0971V21.3691H44.9657V11.8651H51.3276Z" fill="white"/>
<path d="M58.9205 11.7211C59.8927 11.7211 60.7527 11.9345 61.5005 12.3611C62.2483 12.7878 62.8359 13.3691 63.2633 14.1051C63.6906 14.8305 63.9042 15.6678 63.9042 16.6171C63.9042 17.5558 63.6906 18.3931 63.2633 19.1291C62.8359 19.8651 62.2483 20.4464 61.5005 20.8731C60.7527 21.2998 59.8927 21.5131 58.9205 21.5131C57.959 21.5131 57.1044 21.2998 56.3565 20.8731C55.6087 20.4464 55.0158 19.8651 54.5778 19.1291C54.1505 18.3931 53.9368 17.5558 53.9368 16.6171C53.9368 15.6678 54.1505 14.8305 54.5778 14.1051C55.0158 13.3691 55.6087 12.7878 56.3565 12.3611C57.1044 11.9345 57.959 11.7211 58.9205 11.7211ZM58.9205 19.6091C59.4654 19.6091 59.9461 19.4811 60.3628 19.2251C60.7794 18.9691 61.1052 18.6171 61.3403 18.1691C61.5753 17.7104 61.6928 17.1931 61.6928 16.6171C61.6928 16.0411 61.5753 15.5291 61.3403 15.0811C61.1052 14.6331 60.7794 14.2811 60.3628 14.0251C59.9461 13.7585 59.4654 13.6251 58.9205 13.6251C58.3864 13.6251 57.9056 13.7531 57.4783 14.0091C57.0616 14.2651 56.7358 14.6171 56.5008 15.0651C56.2657 15.5131 56.1482 16.0305 56.1482 16.6171C56.1482 17.1824 56.2657 17.6944 56.5008 18.1531C56.7358 18.6011 57.0616 18.9584 57.4783 19.2251C57.9056 19.4811 58.3864 19.6091 58.9205 19.6091Z" fill="white"/>
<path d="M75.3287 11.8651V17.3371C75.3287 18.6704 74.9655 19.6998 74.239 20.4251C73.5126 21.1504 72.503 21.5131 71.2103 21.5131C69.9177 21.5131 68.9081 21.1504 68.1816 20.4251C67.4552 19.6998 67.0919 18.6704 67.0919 17.3371V11.8651H69.2232V17.1771C69.2232 17.9238 69.3835 18.5104 69.704 18.9371C70.0352 19.3531 70.5533 19.5611 71.2584 19.5611C71.9528 19.5611 72.4603 19.3531 72.7808 18.9371C73.1119 18.5104 73.2775 17.9238 73.2775 17.1771V11.8651H75.3287Z" fill="white"/>
<path d="M87.3347 11.8651V21.3691H85.5079L81.8863 16.2971C81.7474 16.1051 81.6138 15.9131 81.4856 15.7211C81.3681 15.5185 81.2613 15.3265 81.1652 15.1451H81.085V21.3691H79.0499V11.8651H81.1171L84.4983 16.6171C84.6372 16.7984 84.7654 16.9904 84.8829 17.1931C85.0111 17.3851 85.1233 17.5718 85.2194 17.7531H85.2996V11.8651H87.3347Z" fill="white"/>
<path d="M99.8006 16.6171C99.8006 17.5451 99.5869 18.3664 99.1596 19.0811C98.7322 19.7958 98.1233 20.3558 97.3327 20.7611C96.5528 21.1664 95.6181 21.3691 94.5284 21.3691H91.1311V11.8651H94.5284C95.6181 11.8651 96.5528 12.0678 97.3327 12.4731C98.1233 12.8785 98.7322 13.4385 99.1596 14.1531C99.5869 14.8571 99.8006 15.6785 99.8006 16.6171ZM97.5891 16.6171C97.5891 15.9985 97.4663 15.4705 97.2205 15.0331C96.9748 14.5958 96.6223 14.2598 96.1629 14.0251C95.7035 13.7798 95.1587 13.6571 94.5284 13.6571H93.2464V19.5771H94.5284C95.1587 19.5771 95.7035 19.4598 96.1629 19.2251C96.6223 18.9798 96.9748 18.6384 97.2205 18.2011C97.4663 17.7531 97.5891 17.2251 97.5891 16.6171Z" fill="white"/>
<path d="M109.465 11.8651L109.304 13.7531H105.234V15.6571H108.583V17.4971H105.234V19.4811H109.545V21.3691H103.103V11.8651H109.465Z" fill="white"/>
<path d="M120.111 15.0651C120.111 15.6945 119.935 16.2385 119.582 16.6971C119.24 17.1451 118.808 17.4598 118.284 17.6411L120.784 21.3691H118.316L116.201 18.1691H114.999V21.3691H112.868V11.8651H116.169C117.002 11.8651 117.713 11.9931 118.3 12.2491C118.888 12.4945 119.337 12.8571 119.646 13.3371C119.956 13.8065 120.111 14.3825 120.111 15.0651ZM117.964 15.0651C117.964 14.7345 117.884 14.4625 117.723 14.2491C117.574 14.0251 117.36 13.8651 117.082 13.7691C116.815 13.6625 116.49 13.6091 116.105 13.6091H114.999V16.5051H116.105C116.49 16.5051 116.815 16.4571 117.082 16.3611C117.36 16.2545 117.574 16.0945 117.723 15.8811C117.884 15.6678 117.964 15.3958 117.964 15.0651Z" fill="white"/>
<path d="M130.024 12.2331L129.624 14.1211C129.453 14.0145 129.223 13.9238 128.935 13.8491C128.657 13.7745 128.369 13.7158 128.069 13.6731C127.77 13.6198 127.487 13.5931 127.22 13.5931C126.707 13.5931 126.317 13.6678 126.05 13.8171C125.783 13.9665 125.65 14.1958 125.65 14.5051C125.65 14.7185 125.735 14.8891 125.906 15.0171C126.077 15.1451 126.301 15.2571 126.579 15.3531C126.868 15.4491 127.183 15.5451 127.525 15.6411C127.866 15.7371 128.208 15.8545 128.55 15.9931C128.892 16.1211 129.202 16.2918 129.48 16.5051C129.757 16.7078 129.982 16.9745 130.153 17.3051C130.334 17.6251 130.425 18.0251 130.425 18.5051C130.425 19.4224 130.089 20.1531 129.415 20.6971C128.742 21.2411 127.77 21.5131 126.499 21.5131C125.911 21.5131 125.351 21.4598 124.816 21.3531C124.293 21.2464 123.86 21.1024 123.518 20.9211L123.695 18.9371C123.908 19.0651 124.17 19.1824 124.48 19.2891C124.79 19.3958 125.126 19.4811 125.489 19.5451C125.853 19.6091 126.211 19.6411 126.563 19.6411C127.129 19.6411 127.551 19.5664 127.829 19.4171C128.107 19.2571 128.246 19.0171 128.246 18.6971C128.246 18.4731 128.155 18.2918 127.973 18.1531C127.802 18.0144 127.578 17.8971 127.3 17.8011C127.022 17.7051 126.713 17.6091 126.371 17.5131C126.029 17.4171 125.687 17.3051 125.345 17.1771C125.003 17.0384 124.688 16.8678 124.4 16.6651C124.122 16.4624 123.898 16.2011 123.727 15.8811C123.556 15.5611 123.47 15.1611 123.47 14.6811C123.47 14.0945 123.614 13.5825 123.903 13.1451C124.202 12.6971 124.629 12.3505 125.185 12.1051C125.74 11.8491 126.403 11.7211 127.172 11.7211C127.482 11.7211 127.813 11.7425 128.166 11.7851C128.518 11.8171 128.855 11.8705 129.175 11.9451C129.506 12.0198 129.789 12.1158 130.024 12.2331Z" fill="white"/>
<path d="M142.013 11.8651V21.3691H139.882V17.5451H135.86V21.3691H133.728V11.8651H135.86V15.6251H139.882V11.8651H142.013Z" fill="white"/>
<path d="M147.941 11.8651V21.3691H145.81V11.8651H147.941Z" fill="white"/>
<path d="M159 15.1291C159 15.8331 158.84 16.4305 158.519 16.9211C158.209 17.4118 157.755 17.7798 157.157 18.0251C156.559 18.2704 155.838 18.3931 154.994 18.3931H153.872V21.3691H151.741V11.8651H155.01C155.854 11.8651 156.57 11.9931 157.157 12.2491C157.755 12.5051 158.209 12.8731 158.519 13.3531C158.84 13.8331 159 14.4251 159 15.1291ZM156.869 15.1291C156.869 14.7771 156.789 14.4891 156.628 14.2651C156.479 14.0411 156.26 13.8758 155.971 13.7691C155.694 13.6625 155.357 13.6091 154.962 13.6091H153.872V16.6491H154.962C155.357 16.6491 155.694 16.5958 155.971 16.4891C156.26 16.3824 156.479 16.2171 156.628 15.9931C156.789 15.7691 156.869 15.4811 156.869 15.1291Z" fill="white"/>
<path d="M3.68293 9.82851C3.22422 9.63498 2.78537 9.39772 2.37253 9.12003C2.18055 8.99082 1.9943 8.85292 1.81379 8.70627C2.27095 7.82148 2.80796 6.9799 3.41819 6.19201C4.21209 6.93851 5.23953 7.39034 6.32819 7.47175C7.41685 7.55322 8.50052 7.2593 9.39743 6.63932C10.2943 6.01935 10.95 5.11098 11.2544 4.06662C11.5587 3.02225 11.4934 1.90539 11.0692 0.90334C11.0441 0.844349 11.018 0.785965 10.9907 0.728187C11.9336 0.397639 12.905 0.153891 13.8926 0C14.3362 1.15252 14.4942 2.39463 14.3533 3.62097C14.2123 4.8473 13.7765 6.02169 13.0828 7.04445C12.2455 8.28 11.0665 9.24707 9.68865 9.82857C8.73808 10.2272 7.71708 10.4325 6.68576 10.4325C5.65439 10.4325 4.63351 10.2271 3.68293 9.82851Z" fill="white"/>
<path d="M2.83525 25.489C3.78158 25.0004 4.53573 24.2092 4.97674 23.2425C5.41775 22.2759 5.52007 21.1897 5.26728 20.1582C5.01449 19.1267 4.42124 18.2096 3.58269 17.5541C2.74414 16.8986 1.70887 16.5426 0.642936 16.5432C0.428799 16.5431 0.214894 16.5573 0.00264597 16.5855C0.000910768 16.4868 8.61561e-07 16.3864 8.61561e-07 16.287C-0.000289481 15.3898 0.0728037 14.4941 0.218555 13.6087C0.359299 13.6012 0.50076 13.5974 0.642936 13.5974C2.18017 13.5949 3.68275 14.0521 4.95616 14.9099C6.1965 15.7439 7.16733 16.9183 7.75109 18.2909C8.25134 19.4685 8.44832 20.752 8.32412 22.0247C8.19992 23.2974 7.7585 24.5191 7.03991 25.5787C6.48479 26.3968 5.77746 27.1013 4.95616 27.6542C4.88411 27.7028 4.81121 27.7501 4.73745 27.7961C4.03455 27.0861 3.39787 26.3138 2.83525 25.489Z" fill="white"/>
<path d="M10.107 28.3845C9.59139 29.1445 9.21694 29.9905 9.00154 30.8823C9.89638 31.3396 10.8316 31.7138 11.7954 32C11.9593 30.8724 12.5254 29.8414 13.3902 29.0957C14.2549 28.35 15.3604 27.9396 16.5042 27.9396C17.6479 27.9396 18.7534 28.35 19.6182 29.0957C20.4829 29.8414 21.0491 30.8724 21.2129 32C22.1767 31.7137 23.1118 31.3396 24.0066 30.8823C23.9083 30.4746 23.7764 30.0758 23.6124 29.6898C23.0285 28.3172 22.0576 27.1428 20.8173 26.3087C19.7536 25.5928 18.5272 25.1531 17.2496 25.0294C15.9719 24.9057 14.6834 25.1019 13.5013 25.6002C12.1233 26.1818 10.9442 27.1489 10.107 28.3845Z" fill="white"/>
<path d="M29.3236 9.82904C29.7823 9.63556 30.2211 9.3983 30.6339 9.12061C30.8259 8.99135 31.0121 8.85339 31.1927 8.70686C30.7355 7.82206 30.1985 6.98048 29.5883 6.19259C28.7943 6.93909 27.7669 7.39092 26.6782 7.4724C25.5895 7.55387 24.5058 7.25994 23.6089 6.63991C22.712 6.01993 22.0564 5.11154 21.752 4.06715C21.4476 3.02276 21.513 1.90588 21.9372 0.903827C21.9623 0.844837 21.9885 0.786453 22.0157 0.728674C21.0728 0.398127 20.1014 0.154381 19.1139 0.000488281C18.6702 1.15301 18.5122 2.39512 18.6531 3.62146C18.7941 4.84779 19.2299 6.02216 19.9236 7.04498C20.761 8.28053 21.9401 9.24759 23.3181 9.82904C24.2687 10.2276 25.2896 10.4329 26.321 10.4329C27.3524 10.4329 28.373 10.2276 29.3236 9.82904Z" fill="white"/>
<path d="M29.0444 24.6331C29.3886 24.9766 29.7837 25.2654 30.216 25.4891C29.6534 26.3139 29.0167 27.0861 28.3138 27.7961C28.2401 27.7501 28.1671 27.7028 28.0949 27.6544C27.6853 27.3785 27.303 27.0643 26.9533 26.716C26.6037 26.3676 26.2883 25.9868 26.0113 25.5788C25.7325 25.1675 25.4943 24.7303 25.3001 24.2732C24.9 23.3264 24.6939 22.3094 24.6939 21.2821C24.6939 20.2547 24.9 19.2378 25.3001 18.2909C25.4943 17.834 25.7325 17.3968 26.0113 16.9856C26.5664 16.1674 27.2737 15.4628 28.0951 14.9099C28.5078 14.6321 28.9467 14.3948 29.4054 14.2013C30.3554 13.8008 31.3768 13.5954 32.4083 13.5974C32.5504 13.5974 32.6919 13.6012 32.8327 13.6088C32.9785 14.4941 33.0515 15.3898 33.0513 16.287C33.0513 16.3865 33.0504 16.487 33.0486 16.5857C32.8364 16.5574 32.6225 16.5433 32.4083 16.5433C31.7835 16.5426 31.1646 16.6648 30.5873 16.9031C30.01 17.1413 29.4857 17.4908 29.0444 17.9315C28.6099 18.3632 28.2637 18.8747 28.025 19.4378C27.7782 20.0217 27.6511 20.6488 27.6511 21.2823C27.6511 21.9159 27.7782 22.543 28.025 23.1269C28.2637 23.6899 28.6099 24.2015 29.0444 24.6331Z" fill="white"/>
<path d="M16.0405 15.4649C16.2177 15.1634 16.7925 15.1634 16.9692 15.4649L20.6287 21.6934C20.7752 21.9427 20.3835 22.0132 20.3835 22.0132C19.1557 21.4688 17.8273 21.1858 16.4834 21.1823C15.1395 21.1858 13.8111 21.4688 12.5833 22.0132C12.5833 22.0132 12.2338 21.9431 12.3801 21.6934L16.0405 15.4649Z" fill="white"/>
<path d="M17.6443 10.8116C17.3065 10.5868 16.9093 10.4668 16.5029 10.4668C15.958 10.4668 15.4355 10.6824 15.0502 11.0662C14.6649 11.45 14.4484 11.9705 14.4484 12.5133C14.4484 12.918 14.5689 13.3137 14.7947 13.6503C15.0204 13.9868 15.3413 14.2491 15.7167 14.404C16.0921 14.5589 16.5052 14.5995 16.9037 14.5205C17.3023 14.4415 17.6683 14.2466 17.9556 13.9604C18.243 13.6742 18.4387 13.3096 18.5179 12.9126C18.5972 12.5156 18.5565 12.1041 18.401 11.7301C18.2455 11.3562 17.9822 11.0366 17.6443 10.8116Z" fill="white"/>
</svg>
