<svg width="436" height="237" viewBox="0 0 436 237" fill="none" xmlns="http://www.w3.org/2000/svg">
<path d="M57.4 61.1002C57.4 42.7002 71.2 34.1002 89.3 34.1002C113 34.1002 125.8 48.6002 128.5 71.6002H175C170.1 31.1002 145.4 0.200195 91 0.200195C47.5 0.200195 9.70001 24.9002 9.70001 66.7002C9.70001 107.2 37.2 123.6 81.1 134.8L122.9 113.5L132.6 108.6L134.4 107.7L134.6 107.6C126.3 104 116.7 100.9 105.8 98.4002C69.6 89.8002 57.4 80.2002 57.4 61.1002ZM156.4 120.5L148.2 123.6L144.3 125.1L102.3 140.8C123.1 148.3 130.9 158.6 130.9 174.1C130.9 191.5 114.4 202.7 93.7 202.7C70.7 202.7 51.6 189.9 46.6 164.8H0.200012C4.50001 212.5 40 236.6 94.4 236.6C139.2 236.6 178.4 212.2 178.4 169.4C178.2 149 171.3 132.8 156.4 120.5Z" fill="black"/>
<path d="M346.1 34.9998L343.1 31.9998L326.7 15.1998L324.8 13.1998C312 4.99983 295.3 0.299805 274.1 0.299805C230.6 0.299805 192.8 24.9998 192.8 66.7998C192.8 88.2998 200.5 103 214.3 113.7L218.1 111.5L219 111L253.4 90.9998L253.6 90.8998L257.2 88.7998L258.2 88.1998C245.4 81.5998 240.6 73.2998 240.6 61.2998C240.6 42.8998 254.4 34.2998 272.5 34.2998C291.3 34.2998 303.3 43.3998 308.7 58.6998L312.5 56.4998L318.2 53.1998L327.5 47.6998L346.7 36.4998C346.6 35.7998 346.4 35.3998 346.1 34.9998ZM309.1 104.1L281.9 118.1L277.4 120.4L261.2 128.7L254.7 132C259.2 133.3 263.8 134.5 268.6 135.7C302.2 143.6 314 154.8 314 173.9C314 191.3 297.5 202.5 276.8 202.5C253.8 202.5 234.7 189.7 229.7 164.6H183.3C187.6 212.3 223.1 236.4 277.5 236.4C322.3 236.4 361.5 212 361.5 169.2C361.4 138.2 345.1 116.9 309.1 104.1Z" fill="black"/>
<path d="M435.9 9.80017L382.5 100.8L371.5 67.4002L319.7 94.2002H319.6L314.6 96.8002L303.8 102.3L280 114.6L275.5 116.9L259.3 125.3L249.1 130.5L220.2 145.5L194.7 158.6L171.5 121.3L168.4 116.2L167.2 114.4L166.1 112.6L161.4 114.4L152.7 117.6L146.8 119.8L142.8 121.3L96.2 138.8L66.8 149.8L43.2 158.6L64.8 147.6L87 136.2L124.7 117L134.4 112.1L136.2 111.2L139.2 109.6L169.4 94.2002L178.8 89.4002L182.2 94.2002L190 105.3L194.5 111.8L196.3 114.4L199.2 118.6L199.8 119.5L200.1 119.8L203.5 124.7L211.8 119.8L217.9 116.2L220.2 114.9L221.1 114.4L255.5 94.3002L255.6 94.2002L259.3 92.1002L262.6 90.1002L264.7 88.9002L264.8 88.8002L265.4 88.5002L275.5 82.6002L310 62.5002L314.6 59.8002L320.3 56.4002L329.7 50.9002L348.8 39.8002L353.6 37.0002L346.1 29.2002L329.7 12.4002L327.5 10.1002L327.1 9.7002H327.3H329.7L435.9 9.80017Z" fill="black"/>
</svg>
